<svg width="33" height="36" viewBox="0 0 33 36" fill="none" xmlns="http://www.w3.org/2000/svg">
<path fill-rule="evenodd" clip-rule="evenodd" d="M29.3888 35.3466L28.8853 34.818V33.5996C28.8853 33.5996 26.4095 31.072 25.8483 30.5021C25.4356 30.0891 24.5814 30.0065 23.8345 30.0354L24.0078 35.2847L0.0742767 35.7183L0 11.2355C0 11.2355 8.89256 10.2567 8.28597 7.97275C7.91491 6.61943 7.65409 5.23823 7.50606 3.84272C7.31624 -1.20005 15.3464 -1.36112 15.1978 3.84272C15.0854 5.23731 14.8507 6.61932 14.4963 7.97275C13.9681 10.1823 23.1619 10.9712 23.1619 10.9712L23.5746 23.799L13.6256 13.9943C10.1676 17.4553 14.8636 22.6674 22.3985 30.2088L21.3504 29.1102L25.2252 25.2941L32.4506 32.5671C34.2951 34.6238 31.0394 37.2382 29.3888 35.3466ZM11.3891 2.53762C11.2325 2.536 11.0771 2.56526 10.9318 2.62374C10.7865 2.68222 10.6541 2.76877 10.5422 2.87845C10.4303 2.98814 10.3411 3.11881 10.2797 3.263C10.2182 3.40718 10.1858 3.56207 10.1841 3.71881C10.1825 3.87556 10.2118 4.03109 10.2702 4.17652C10.3286 4.32195 10.4151 4.45445 10.5247 4.56643C10.6343 4.67842 10.7648 4.7677 10.9089 4.82919C11.053 4.89068 11.2077 4.92316 11.3643 4.92479C12.9324 4.92479 12.9241 2.53762 11.3891 2.53762Z" fill="black"/>
</svg>
