<svg width="180" height="180" viewBox="0 0 180 180" fill="none" xmlns="http://www.w3.org/2000/svg">
<style>
  path {
    fill: #cb2028;
  }
  @media (prefers-color-scheme: dark) {
    path { fill: #ffffff; }
  }
</style>
<path fill-rule="evenodd" clip-rule="evenodd" d="M158.347 134.518L158.689 108.864C180.418 108.864 178.98 124.564 178.98 124.564L158.347 134.518ZM150.374 112.952C150.374 115.192 150.374 132.329 150.374 134.501C151.469 167.201 140.245 174.282 114.444 174.282C105.513 174.282 85.7005 175 66.7092 175C40.9425 175 30.5059 170.827 30.0097 138.11C30.0097 134.911 29.1371 116.441 29.0516 114.166C28.6239 104.503 27.0327 99.7485 20.4969 99.7485C20.4969 92.4115 22.9778 84.8521 35.0056 84.8521C47.6323 84.8521 109.448 84.3048 143.787 84.3048C155.763 84.3048 159.39 91.6932 159.39 99.0473C155.524 99.1328 150.066 103.272 150.374 112.952ZM123.119 65.9366C124.689 64.1627 125.866 62.077 126.574 59.8164C127.282 57.5558 127.503 55.1712 127.225 52.8189C125.976 44.8833 120.586 45.6529 117.746 36.6569C115.522 29.5594 121.716 18.3229 128.388 13.4829L133.983 18.7334C129.945 22.0513 129.996 26.9256 131.297 31.0815C133.589 38.4185 139.355 38.1962 140.707 47.5C141.819 55.2304 136.31 66.7062 128.73 70.9819L123.119 65.9366ZM86.0769 63.0805C89.8751 59.3521 92.5955 53.0241 91.5519 48.6117C89.7041 40.6761 80.0715 38.8632 77.8644 29.662C75.914 21.2817 83.2196 9.90845 89.8409 5L95.5041 10.336C93.6069 12.0031 92.2185 14.1711 91.4982 16.5913C90.778 19.0114 90.755 21.5855 91.4321 24.0181C93.143 31.5091 102.827 33.9205 105 43.2072C106.711 50.8179 99.2339 63.7304 91.6716 68.0915L86.0769 63.0805ZM48.4364 65.9366C49.9916 64.1556 51.1535 62.0667 51.8463 59.8064C52.5391 57.5461 52.7472 55.1651 52.4571 52.8189C51.2081 44.8833 45.8016 45.6529 42.9786 36.6569C40.7372 29.5594 46.9479 18.3229 53.5692 13.4829L59.2495 18.8189C55.2801 22.0342 55.2802 26.9256 56.5976 31.0815C58.8902 38.4185 64.656 38.1962 65.9906 47.5C67.1198 55.2304 61.6106 66.7062 54.0141 70.9819L48.4364 65.9366ZM0 124.924C1.40296 124.701 0.752805 106.897 20.1034 106.897L22.1737 134.911L0 124.924Z" fill="black"/>
</svg>
