<svg width="24" height="24" viewBox="0 0 24 24" fill="none" xmlns="http://www.w3.org/2000/svg">
<path fill-rule="evenodd" clip-rule="evenodd" d="M1.10129 10.1487L6.13285 10.255C5.98752 11.0504 5.99192 11.7607 6.22533 12.169C6.22533 12.169 8.52862 12.3498 10.942 12.4434L11.8911 10.6038L12.8379 10.8696L12.534 12.4838C14.2956 12.5157 15.837 12.471 16.2774 12.2371C15.9868 11.329 13.3356 9.53199 11.1314 8.17094L10.0304 9.85949L9.18481 9.43416L9.74852 7.33091C8.78405 6.76097 8.10804 6.38669 8.10804 6.38669C7.61038 6.66315 7.11053 7.42236 6.72739 8.31342L3.44421 6.18678L2.47093 7.5457L3.36714 8.26876L1 8.37722L1.10129 10.1487ZM21.0051 0.608604C14.9122 -2.3134 10.6359 6.13149 16.7354 8.06673L21.0051 0.608604ZM19.2061 1.39546L18.4552 2.69484L17.5744 2.18657L17.3168 3.03723L16.4206 3.31794L16.7178 4.041L16.0572 4.73641L17.0327 5.16174L16.4184 6.22506C13.9345 4.54076 16.3633 0.817015 19.2061 1.39546ZM19.0519 7.59887L17.6008 13.226L19.7676 13.3536L19.7984 12.7156L20.5911 12.2201L20.1067 11.5948L20.5471 10.7591L19.6112 10.6166L19.9437 9.34059C21.5996 9.95731 21.5798 12.0287 20.8025 13.4131L22.454 13.5109C23.7312 11.1163 22.835 7.80303 19.0519 7.59887ZM6.15267 14.2935C6.15267 17.9471 8.20712 20.2928 10.8539 21.3519L10.7592 23L17.4753 22.7873L17.3806 21.5114C20.1926 20.548 22.4276 18.1959 22.4276 14.4743C20.3819 14.4679 9.00204 14.2935 6.15267 14.2935Z" fill="black"/>
</svg>
