<svg width="24" height="24" viewBox="0 0 24 24" fill="none" xmlns="http://www.w3.org/2000/svg">
<path fill-rule="evenodd" clip-rule="evenodd" d="M14.1322 12.8676C14.2032 5.04043 14.7984 0 18.8198 0L18.9181 12.8676H14.1322ZM10.0371 11.6566C10.0371 12.6425 10.3729 20.1617 10.4793 22.4154C10.5858 24.6691 6.47426 24.4285 6.60803 22.2498C6.74181 20.0712 7.11037 12.6761 7.11037 11.667C7.11037 10.6579 5 9.6591 5 9.6591L5.87909 0.131961L6.90016 0.163011L6.72816 6.89048L7.7929 6.90859L8.09867 0.144899L9.19072 0.214761L9.30811 6.94223L10.3428 6.96035L10.2391 0.266511L11.4567 0.302736L12.0491 9.80917C12.0491 9.80917 10.0316 10.6812 10.0316 11.6566H10.0371ZM14.1322 14.9738V14.0449H18.9372L19 22.4051C18.8662 24.7338 15.1778 24.369 15.3116 22.2395V21.6133L16.0706 20.8784C16.0706 20.8784 16.1115 17.8847 16.1115 17.2016C16.1241 16.6644 15.929 16.1413 15.5629 15.731C15.1969 15.3206 14.6851 15.0513 14.124 14.9738H14.1322Z" fill="black"/>
</svg>
